<?xml version="1.0" encoding="UTF-8"?>
<svg xmlns="http://www.w3.org/2000/svg" xmlns:xlink="http://www.w3.org/1999/xlink" width="459pt" height="405pt" viewBox="0 0 459 405">
<defs>
<g>
<g id="glyph-0-0">
<path d="M 1.046875 0 L 1.046875 -10.308594 L 4.386719 -10.308594 C 5.648438 -10.304688 6.472656 -10.253906 6.863281 -10.152344 C 7.449219 -9.996094 7.945312 -9.660156 8.347656 -9.144531 C 8.742188 -8.625 8.941406 -7.957031 8.945312 -7.136719 C 8.941406 -6.503906 8.824219 -5.96875 8.597656 -5.539062 C 8.363281 -5.105469 8.074219 -4.769531 7.722656 -4.523438 C 7.367188 -4.277344 7.007812 -4.113281 6.644531 -4.035156 C 6.144531 -3.933594 5.421875 -3.882812 4.484375 -3.886719 L 3.128906 -3.886719 L 3.128906 0 Z M 3.128906 -8.5625 L 3.128906 -5.640625 L 4.269531 -5.640625 C 5.085938 -5.636719 5.632812 -5.691406 5.914062 -5.800781 C 6.1875 -5.90625 6.40625 -6.074219 6.5625 -6.304688 C 6.71875 -6.535156 6.796875 -6.800781 6.800781 -7.109375 C 6.796875 -7.480469 6.6875 -7.789062 6.46875 -8.035156 C 6.246094 -8.277344 5.964844 -8.429688 5.632812 -8.492188 C 5.378906 -8.535156 4.878906 -8.558594 4.132812 -8.5625 Z M 3.128906 -8.5625 "/>
</g>
<g id="glyph-0-1">
<path d="M 0.984375 0 L 0.984375 -10.308594 L 3.066406 -10.308594 L 3.066406 0 Z M 0.984375 0 "/>
</g>
<g id="glyph-0-2">
<path d="M 1.054688 0 L 1.054688 -10.308594 L 5.433594 -10.308594 C 6.53125 -10.304688 7.332031 -10.214844 7.835938 -10.03125 C 8.332031 -9.84375 8.734375 -9.511719 9.035156 -9.042969 C 9.332031 -8.566406 9.480469 -8.027344 9.484375 -7.417969 C 9.480469 -6.644531 9.253906 -6.003906 8.800781 -5.5 C 8.347656 -4.996094 7.667969 -4.679688 6.765625 -4.550781 C 7.210938 -4.285156 7.582031 -3.996094 7.875 -3.683594 C 8.167969 -3.367188 8.5625 -2.808594 9.0625 -2.011719 L 10.320312 0 L 7.832031 0 L 6.328125 -2.242188 C 5.792969 -3.042969 5.425781 -3.546875 5.230469 -3.757812 C 5.03125 -3.960938 4.824219 -4.105469 4.605469 -4.1875 C 4.382812 -4.261719 4.03125 -4.300781 3.558594 -4.304688 L 3.136719 -4.304688 L 3.136719 0 Z M 3.136719 -5.949219 L 4.675781 -5.949219 C 5.671875 -5.945312 6.292969 -5.988281 6.542969 -6.074219 C 6.789062 -6.15625 6.984375 -6.300781 7.128906 -6.511719 C 7.265625 -6.714844 7.335938 -6.972656 7.339844 -7.285156 C 7.335938 -7.628906 7.242188 -7.910156 7.0625 -8.125 C 6.875 -8.335938 6.613281 -8.46875 6.277344 -8.527344 C 6.105469 -8.546875 5.601562 -8.558594 4.761719 -8.5625 L 3.136719 -8.5625 Z M 3.136719 -5.949219 "/>
</g>
<g id="glyph-0-3">
</g>
<g id="glyph-0-4">
<path d="M 1.800781 0 L 1.800781 -9 L 9 -9 L 9 0 Z M 2.023438 -0.226562 L 8.773438 -0.226562 L 8.773438 -8.773438 L 2.023438 -8.773438 Z M 2.023438 -0.226562 "/>
</g>
<g id="glyph-1-0">
<path d="M 0.925781 0 L 0.925781 -8.589844 L 4.164062 -8.589844 C 4.734375 -8.589844 5.171875 -8.5625 5.472656 -8.507812 C 5.894531 -8.4375 6.246094 -8.300781 6.53125 -8.105469 C 6.816406 -7.90625 7.046875 -7.632812 7.222656 -7.277344 C 7.394531 -6.917969 7.480469 -6.527344 7.484375 -6.105469 C 7.480469 -5.371094 7.25 -4.75 6.785156 -4.25 C 6.316406 -3.742188 5.476562 -3.492188 4.265625 -3.492188 L 2.0625 -3.492188 L 2.0625 0 Z M 2.0625 -4.507812 L 4.28125 -4.507812 C 5.011719 -4.503906 5.535156 -4.640625 5.847656 -4.917969 C 6.15625 -5.1875 6.308594 -5.574219 6.3125 -6.070312 C 6.308594 -6.429688 6.21875 -6.734375 6.039062 -6.992188 C 5.855469 -7.242188 5.617188 -7.414062 5.320312 -7.5 C 5.125 -7.550781 4.769531 -7.574219 4.257812 -7.578125 L 2.0625 -7.578125 Z M 2.0625 -4.507812 "/>
</g>
<g id="glyph-1-1">
<path d="M 1.117188 0 L 1.117188 -8.589844 L 2.257812 -8.589844 L 2.257812 0 Z M 1.117188 0 "/>
</g>
<g id="glyph-1-2">
<path d="M 0.945312 0 L 0.945312 -8.589844 L 4.75 -8.589844 C 5.511719 -8.589844 6.09375 -8.511719 6.496094 -8.355469 C 6.890625 -8.199219 7.210938 -7.925781 7.453125 -7.539062 C 7.691406 -7.144531 7.808594 -6.714844 7.8125 -6.246094 C 7.808594 -5.636719 7.613281 -5.121094 7.21875 -4.703125 C 6.820312 -4.285156 6.210938 -4.019531 5.390625 -3.90625 C 5.691406 -3.761719 5.917969 -3.621094 6.078125 -3.480469 C 6.40625 -3.175781 6.722656 -2.792969 7.019531 -2.335938 L 8.515625 0 L 7.085938 0 L 5.945312 -1.789062 C 5.613281 -2.300781 5.339844 -2.695312 5.125 -2.972656 C 4.910156 -3.242188 4.71875 -3.433594 4.550781 -3.546875 C 4.378906 -3.652344 4.207031 -3.730469 4.03125 -3.773438 C 3.898438 -3.796875 3.6875 -3.808594 3.398438 -3.8125 L 2.078125 -3.8125 L 2.078125 0 Z M 2.078125 -4.796875 L 4.523438 -4.796875 C 5.042969 -4.792969 5.449219 -4.847656 5.742188 -4.957031 C 6.03125 -5.066406 6.253906 -5.238281 6.410156 -5.472656 C 6.5625 -5.707031 6.636719 -5.964844 6.640625 -6.246094 C 6.636719 -6.652344 6.488281 -6.984375 6.195312 -7.246094 C 5.898438 -7.507812 5.433594 -7.640625 4.796875 -7.640625 L 2.078125 -7.640625 Z M 2.078125 -4.796875 "/>
</g>
<g id="glyph-1-3">
<path d="M 0.5 -4.234375 C 0.496094 -5.246094 0.601562 -6.0625 0.8125 -6.6875 C 1.019531 -7.304688 1.328125 -7.785156 1.742188 -8.121094 C 2.148438 -8.457031 2.667969 -8.625 3.296875 -8.625 C 3.757812 -8.625 4.164062 -8.53125 4.511719 -8.347656 C 4.855469 -8.160156 5.140625 -7.890625 5.371094 -7.542969 C 5.59375 -7.191406 5.773438 -6.765625 5.90625 -6.265625 C 6.035156 -5.761719 6.097656 -5.085938 6.101562 -4.234375 C 6.097656 -3.226562 5.996094 -2.414062 5.789062 -1.796875 C 5.578125 -1.175781 5.265625 -0.695312 4.859375 -0.359375 C 4.445312 -0.0195312 3.925781 0.144531 3.296875 0.148438 C 2.464844 0.144531 1.816406 -0.148438 1.347656 -0.742188 C 0.78125 -1.457031 0.496094 -2.621094 0.5 -4.234375 Z M 1.582031 -4.234375 C 1.582031 -2.824219 1.746094 -1.886719 2.074219 -1.417969 C 2.402344 -0.949219 2.808594 -0.714844 3.296875 -0.71875 C 3.777344 -0.714844 4.183594 -0.949219 4.519531 -1.421875 C 4.847656 -1.886719 5.015625 -2.824219 5.015625 -4.234375 C 5.015625 -5.648438 4.847656 -6.589844 4.519531 -7.054688 C 4.183594 -7.515625 3.773438 -7.746094 3.289062 -7.75 C 2.800781 -7.746094 2.414062 -7.542969 2.125 -7.136719 C 1.761719 -6.613281 1.582031 -5.644531 1.582031 -4.234375 Z M 1.582031 -4.234375 "/>
</g>
<g id="glyph-1-4">
<path d="M 4.46875 0 L 3.414062 0 L 3.414062 -6.71875 C 3.160156 -6.476562 2.828125 -6.234375 2.414062 -5.996094 C 2 -5.75 1.628906 -5.570312 1.304688 -5.449219 L 1.304688 -6.46875 C 1.894531 -6.742188 2.410156 -7.078125 2.851562 -7.476562 C 3.292969 -7.871094 3.605469 -8.253906 3.789062 -8.625 L 4.46875 -8.625 Z M 4.46875 0 "/>
</g>
<g id="glyph-1-5">
<path d="M 6.039062 -1.015625 L 6.039062 0 L 0.363281 0 C 0.355469 -0.253906 0.394531 -0.496094 0.484375 -0.734375 C 0.628906 -1.117188 0.859375 -1.5 1.179688 -1.875 C 1.492188 -2.25 1.953125 -2.683594 2.5625 -3.175781 C 3.492188 -3.941406 4.125 -4.546875 4.453125 -4.992188 C 4.78125 -5.4375 4.945312 -5.859375 4.945312 -6.265625 C 4.945312 -6.679688 4.792969 -7.03125 4.496094 -7.320312 C 4.191406 -7.601562 3.804688 -7.746094 3.328125 -7.75 C 2.820312 -7.746094 2.414062 -7.59375 2.109375 -7.292969 C 1.804688 -6.984375 1.648438 -6.5625 1.648438 -6.03125 L 0.5625 -6.140625 C 0.632812 -6.945312 0.910156 -7.558594 1.398438 -7.988281 C 1.878906 -8.410156 2.53125 -8.625 3.351562 -8.625 C 4.171875 -8.625 4.824219 -8.394531 5.308594 -7.9375 C 5.789062 -7.480469 6.027344 -6.914062 6.03125 -6.242188 C 6.027344 -5.894531 5.957031 -5.558594 5.820312 -5.226562 C 5.675781 -4.890625 5.441406 -4.539062 5.117188 -4.175781 C 4.789062 -3.804688 4.25 -3.300781 3.492188 -2.664062 C 2.859375 -2.128906 2.453125 -1.769531 2.273438 -1.582031 C 2.09375 -1.394531 1.945312 -1.203125 1.828125 -1.015625 Z M 6.039062 -1.015625 "/>
</g>
<g id="glyph-1-6">
<path d="M 0.503906 -2.265625 L 1.558594 -2.40625 C 1.679688 -1.808594 1.882812 -1.378906 2.175781 -1.113281 C 2.464844 -0.847656 2.820312 -0.714844 3.242188 -0.71875 C 3.734375 -0.714844 4.152344 -0.886719 4.496094 -1.234375 C 4.832031 -1.574219 5.003906 -2 5.007812 -2.515625 C 5.003906 -2.996094 4.847656 -3.394531 4.535156 -3.710938 C 4.21875 -4.023438 3.816406 -4.183594 3.328125 -4.183594 C 3.128906 -4.183594 2.878906 -4.144531 2.585938 -4.066406 L 2.703125 -4.992188 C 2.765625 -4.984375 2.824219 -4.980469 2.871094 -4.980469 C 3.320312 -4.980469 3.722656 -5.097656 4.085938 -5.332031 C 4.441406 -5.566406 4.621094 -5.925781 4.625 -6.414062 C 4.621094 -6.800781 4.492188 -7.121094 4.230469 -7.375 C 3.964844 -7.628906 3.625 -7.757812 3.21875 -7.757812 C 2.804688 -7.757812 2.464844 -7.628906 2.191406 -7.371094 C 1.917969 -7.113281 1.742188 -6.726562 1.664062 -6.210938 L 0.609375 -6.398438 C 0.738281 -7.105469 1.03125 -7.652344 1.488281 -8.042969 C 1.941406 -8.429688 2.507812 -8.625 3.195312 -8.625 C 3.660156 -8.625 4.09375 -8.523438 4.488281 -8.324219 C 4.878906 -8.121094 5.179688 -7.847656 5.390625 -7.5 C 5.601562 -7.148438 5.707031 -6.777344 5.707031 -6.390625 C 5.707031 -6.019531 5.605469 -5.683594 5.40625 -5.378906 C 5.207031 -5.074219 4.914062 -4.832031 4.523438 -4.652344 C 5.03125 -4.535156 5.425781 -4.289062 5.707031 -3.921875 C 5.988281 -3.546875 6.128906 -3.085938 6.128906 -2.539062 C 6.128906 -1.785156 5.855469 -1.148438 5.308594 -0.628906 C 4.761719 -0.105469 4.070312 0.152344 3.234375 0.152344 C 2.476562 0.152344 1.847656 -0.0703125 1.355469 -0.519531 C 0.855469 -0.96875 0.574219 -1.550781 0.503906 -2.265625 Z M 0.503906 -2.265625 "/>
</g>
<g id="glyph-1-7">
<path d="M 3.878906 0 L 3.878906 -2.054688 L 0.152344 -2.054688 L 0.152344 -3.023438 L 4.070312 -8.589844 L 4.933594 -8.589844 L 4.933594 -3.023438 L 6.09375 -3.023438 L 6.09375 -2.054688 L 4.933594 -2.054688 L 4.933594 0 Z M 3.878906 -3.023438 L 3.878906 -6.898438 L 1.1875 -3.023438 Z M 3.878906 -3.023438 "/>
</g>
<g id="glyph-1-8">
<path d="M 0.5 -2.25 L 1.605469 -2.34375 C 1.683594 -1.804688 1.871094 -1.398438 2.175781 -1.125 C 2.472656 -0.851562 2.835938 -0.714844 3.257812 -0.71875 C 3.765625 -0.714844 4.195312 -0.90625 4.546875 -1.292969 C 4.898438 -1.671875 5.074219 -2.179688 5.074219 -2.820312 C 5.074219 -3.414062 4.902344 -3.890625 4.566406 -4.242188 C 4.226562 -4.589844 3.785156 -4.761719 3.242188 -4.765625 C 2.898438 -4.761719 2.59375 -4.683594 2.320312 -4.53125 C 2.046875 -4.375 1.832031 -4.175781 1.675781 -3.929688 L 0.6875 -4.0625 L 1.515625 -8.472656 L 5.789062 -8.472656 L 5.789062 -7.464844 L 2.359375 -7.464844 L 1.898438 -5.15625 C 2.414062 -5.515625 2.953125 -5.695312 3.523438 -5.695312 C 4.269531 -5.695312 4.902344 -5.433594 5.421875 -4.914062 C 5.933594 -4.394531 6.191406 -3.726562 6.195312 -2.914062 C 6.191406 -2.132812 5.964844 -1.460938 5.515625 -0.898438 C 4.960938 -0.199219 4.210938 0.144531 3.257812 0.148438 C 2.476562 0.144531 1.835938 -0.0703125 1.34375 -0.507812 C 0.84375 -0.941406 0.5625 -1.523438 0.5 -2.25 Z M 0.5 -2.25 "/>
</g>
<g id="glyph-2-0">
<path d="M 0 -0.984375 L -8.589844 -0.984375 L -8.589844 -6.78125 L -7.578125 -6.78125 L -7.578125 -2.121094 L -4.914062 -2.121094 L -4.914062 -6.152344 L -3.902344 -6.152344 L -3.902344 -2.121094 L 0 -2.121094 Z M 0 -0.984375 "/>
</g>
<g id="glyph-2-1">
<path d="M 0 -0.78125 L -6.222656 -0.78125 L -6.222656 -1.730469 L -5.28125 -1.730469 C -5.71875 -1.96875 -6.011719 -2.191406 -6.152344 -2.398438 C -6.292969 -2.601562 -6.363281 -2.828125 -6.363281 -3.078125 C -6.363281 -3.429688 -6.25 -3.792969 -6.023438 -4.160156 L -5.046875 -3.796875 C -5.195312 -3.539062 -5.273438 -3.28125 -5.273438 -3.023438 C -5.273438 -2.792969 -5.203125 -2.585938 -5.066406 -2.402344 C -4.925781 -2.21875 -4.734375 -2.085938 -4.488281 -2.011719 C -4.113281 -1.890625 -3.703125 -1.832031 -3.257812 -1.835938 L 0 -1.835938 Z M 0 -0.78125 "/>
</g>
<g id="glyph-2-2">
<path d="M -2.003906 -5.050781 L -1.867188 -6.140625 C -1.230469 -5.96875 -0.738281 -5.648438 -0.386719 -5.183594 C -0.0351562 -4.71875 0.140625 -4.125 0.140625 -3.40625 C 0.140625 -2.492188 -0.136719 -1.769531 -0.699219 -1.238281 C -1.253906 -0.703125 -2.042969 -0.4375 -3.058594 -0.441406 C -4.105469 -0.4375 -4.917969 -0.707031 -5.496094 -1.25 C -6.074219 -1.785156 -6.363281 -2.484375 -6.363281 -3.347656 C -6.363281 -4.175781 -6.078125 -4.855469 -5.511719 -5.382812 C -4.945312 -5.910156 -4.148438 -6.175781 -3.121094 -6.175781 C -3.054688 -6.175781 -2.960938 -6.171875 -2.839844 -6.171875 L -2.84375 -1.53125 C -2.15625 -1.566406 -1.632812 -1.761719 -1.269531 -2.109375 C -0.90625 -2.457031 -0.726562 -2.890625 -0.726562 -3.410156 C -0.726562 -3.796875 -0.828125 -4.125 -1.03125 -4.402344 C -1.234375 -4.671875 -1.558594 -4.890625 -2.003906 -5.050781 Z M -3.710938 -1.589844 L -3.707031 -5.0625 C -4.226562 -5.015625 -4.621094 -4.882812 -4.886719 -4.664062 C -5.292969 -4.328125 -5.496094 -3.890625 -5.496094 -3.359375 C -5.496094 -2.871094 -5.332031 -2.464844 -5.007812 -2.136719 C -4.683594 -1.804688 -4.25 -1.621094 -3.710938 -1.589844 Z M -3.710938 -1.589844 "/>
</g>
<g id="glyph-2-3">
<path d="M 2.386719 -4.757812 L -0.660156 -4.757812 C -0.429688 -4.59375 -0.238281 -4.363281 -0.0859375 -4.066406 C 0.0664062 -3.769531 0.140625 -3.457031 0.140625 -3.128906 C 0.140625 -2.390625 -0.152344 -1.753906 -0.742188 -1.222656 C -1.332031 -0.6875 -2.140625 -0.421875 -3.171875 -0.421875 C -3.792969 -0.421875 -4.355469 -0.527344 -4.851562 -0.746094 C -5.34375 -0.960938 -5.71875 -1.277344 -5.976562 -1.691406 C -6.234375 -2.101562 -6.363281 -2.554688 -6.363281 -3.046875 C -6.363281 -3.816406 -6.039062 -4.421875 -5.390625 -4.863281 L -6.222656 -4.863281 L -6.222656 -5.8125 L 2.386719 -5.8125 Z M -3.128906 -1.507812 C -2.328125 -1.503906 -1.726562 -1.671875 -1.328125 -2.011719 C -0.925781 -2.34375 -0.726562 -2.746094 -0.726562 -3.21875 C -0.726562 -3.664062 -0.914062 -4.050781 -1.296875 -4.375 C -1.671875 -4.699219 -2.253906 -4.863281 -3.035156 -4.863281 C -3.863281 -4.863281 -4.484375 -4.691406 -4.902344 -4.351562 C -5.320312 -4.007812 -5.53125 -3.605469 -5.53125 -3.148438 C -5.53125 -2.6875 -5.335938 -2.300781 -4.949219 -1.984375 C -4.558594 -1.664062 -3.953125 -1.503906 -3.128906 -1.507812 Z M -3.128906 -1.507812 "/>
</g>
<g id="glyph-2-4">
<path d="M 0 -4.867188 L -0.914062 -4.867188 C -0.210938 -4.378906 0.140625 -3.722656 0.140625 -2.894531 C 0.140625 -2.527344 0.0703125 -2.183594 -0.0703125 -1.867188 C -0.210938 -1.546875 -0.386719 -1.308594 -0.597656 -1.15625 C -0.808594 -1 -1.070312 -0.894531 -1.382812 -0.832031 C -1.589844 -0.789062 -1.917969 -0.765625 -2.367188 -0.769531 L -6.222656 -0.769531 L -6.222656 -1.824219 L -2.773438 -1.824219 C -2.21875 -1.820312 -1.847656 -1.84375 -1.65625 -1.886719 C -1.378906 -1.949219 -1.160156 -2.089844 -1.003906 -2.308594 C -0.839844 -2.523438 -0.761719 -2.789062 -0.765625 -3.105469 C -0.761719 -3.417969 -0.84375 -3.714844 -1.007812 -3.996094 C -1.171875 -4.273438 -1.390625 -4.46875 -1.671875 -4.585938 C -1.945312 -4.699219 -2.351562 -4.757812 -2.886719 -4.757812 L -6.222656 -4.757812 L -6.222656 -5.8125 L 0 -5.8125 Z M 0 -4.867188 "/>
</g>
<g id="glyph-2-5">
<path d="M 0 -0.789062 L -6.222656 -0.792969 L -6.222656 -1.742188 L -5.335938 -1.742188 C -6.019531 -2.195312 -6.363281 -2.855469 -6.363281 -3.722656 C -6.363281 -4.089844 -6.292969 -4.433594 -6.160156 -4.753906 C -6.023438 -5.066406 -5.847656 -5.304688 -5.632812 -5.460938 C -5.410156 -5.617188 -5.152344 -5.726562 -4.851562 -5.789062 C -4.65625 -5.828125 -4.3125 -5.847656 -3.824219 -5.847656 L 0 -5.847656 L 0 -4.792969 L -3.785156 -4.792969 C -4.214844 -4.792969 -4.535156 -4.75 -4.75 -4.667969 C -4.960938 -4.585938 -5.128906 -4.441406 -5.257812 -4.234375 C -5.382812 -4.023438 -5.449219 -3.777344 -5.449219 -3.5 C -5.449219 -3.046875 -5.304688 -2.660156 -5.019531 -2.335938 C -4.734375 -2.007812 -4.195312 -1.84375 -3.398438 -1.847656 L 0 -1.84375 Z M 0 -0.789062 "/>
</g>
<g id="glyph-2-6">
<path d="M -2.277344 -4.851562 L -2.144531 -5.890625 C -1.425781 -5.773438 -0.863281 -5.484375 -0.464844 -5.019531 C -0.0585938 -4.550781 0.140625 -3.976562 0.140625 -3.296875 C 0.140625 -2.445312 -0.136719 -1.761719 -0.695312 -1.246094 C -1.25 -0.726562 -2.046875 -0.46875 -3.085938 -0.46875 C -3.753906 -0.46875 -4.34375 -0.578125 -4.851562 -0.800781 C -5.355469 -1.023438 -5.730469 -1.363281 -5.984375 -1.820312 C -6.234375 -2.273438 -6.363281 -2.769531 -6.363281 -3.304688 C -6.363281 -3.980469 -6.191406 -4.53125 -5.847656 -4.964844 C -5.503906 -5.390625 -5.019531 -5.667969 -4.394531 -5.789062 L -4.234375 -4.765625 C -4.652344 -4.664062 -4.96875 -4.492188 -5.179688 -4.246094 C -5.390625 -3.996094 -5.496094 -3.695312 -5.496094 -3.347656 C -5.496094 -2.8125 -5.304688 -2.382812 -4.921875 -2.050781 C -4.539062 -1.71875 -3.9375 -1.550781 -3.117188 -1.554688 C -2.28125 -1.550781 -1.671875 -1.710938 -1.292969 -2.035156 C -0.914062 -2.351562 -0.726562 -2.769531 -0.726562 -3.289062 C -0.726562 -3.695312 -0.851562 -4.042969 -1.105469 -4.324219 C -1.359375 -4.601562 -1.75 -4.777344 -2.277344 -4.851562 Z M -2.277344 -4.851562 "/>
</g>
<g id="glyph-2-7">
<path d="M 2.398438 -0.742188 L 1.40625 -0.625 C 1.46875 -0.855469 1.5 -1.058594 1.5 -1.230469 C 1.5 -1.464844 1.460938 -1.652344 1.382812 -1.792969 C 1.304688 -1.933594 1.195312 -2.046875 1.054688 -2.140625 C 0.949219 -2.203125 0.6875 -2.3125 0.269531 -2.460938 C 0.210938 -2.480469 0.125 -2.511719 0.0117188 -2.554688 L -6.222656 -0.195312 L -6.222656 -1.332031 L -2.617188 -2.625 C -2.160156 -2.789062 -1.679688 -2.9375 -1.175781 -3.078125 C -1.65625 -3.195312 -2.128906 -3.339844 -2.59375 -3.507812 L -6.222656 -4.839844 L -6.222656 -5.894531 L 0.105469 -3.527344 C 0.789062 -3.273438 1.257812 -3.074219 1.519531 -2.9375 C 1.863281 -2.746094 2.117188 -2.53125 2.28125 -2.289062 C 2.4375 -2.042969 2.519531 -1.753906 2.523438 -1.421875 C 2.519531 -1.214844 2.476562 -0.988281 2.398438 -0.742188 Z M 2.398438 -0.742188 "/>
</g>
<g id="glyph-2-8">
<path d="M -4.234375 -0.5 C -5.246094 -0.496094 -6.0625 -0.601562 -6.6875 -0.8125 C -7.304688 -1.019531 -7.785156 -1.328125 -8.121094 -1.742188 C -8.457031 -2.152344 -8.625 -2.671875 -8.625 -3.300781 C -8.625 -3.757812 -8.53125 -4.164062 -8.347656 -4.511719 C -8.160156 -4.859375 -7.890625 -5.144531 -7.542969 -5.371094 C -7.191406 -5.59375 -6.765625 -5.773438 -6.265625 -5.90625 C -5.761719 -6.035156 -5.085938 -6.097656 -4.234375 -6.101562 C -3.222656 -6.097656 -2.410156 -5.996094 -1.792969 -5.789062 C -1.175781 -5.578125 -0.695312 -5.265625 -0.359375 -4.859375 C -0.0195312 -4.445312 0.144531 -3.925781 0.148438 -3.296875 C 0.144531 -2.464844 -0.148438 -1.816406 -0.742188 -1.347656 C -1.457031 -0.78125 -2.621094 -0.496094 -4.234375 -0.5 Z M -4.234375 -1.582031 C -2.824219 -1.582031 -1.886719 -1.746094 -1.417969 -2.074219 C -0.949219 -2.402344 -0.714844 -2.808594 -0.71875 -3.296875 C -0.714844 -3.777344 -0.949219 -4.183594 -1.421875 -4.519531 C -1.886719 -4.847656 -2.824219 -5.015625 -4.234375 -5.015625 C -5.648438 -5.015625 -6.589844 -4.847656 -7.054688 -4.519531 C -7.515625 -4.1875 -7.746094 -3.777344 -7.75 -3.289062 C -7.746094 -2.800781 -7.542969 -2.414062 -7.136719 -2.128906 C -6.613281 -1.761719 -5.644531 -1.582031 -4.234375 -1.582031 Z M -4.234375 -1.582031 "/>
</g>
<g id="glyph-2-9">
<path d="M -1.011719 -6.039062 L 0 -6.039062 L 0 -0.363281 C -0.253906 -0.355469 -0.496094 -0.394531 -0.734375 -0.488281 C -1.117188 -0.628906 -1.5 -0.859375 -1.875 -1.179688 C -2.25 -1.496094 -2.683594 -1.957031 -3.175781 -2.5625 C -3.941406 -3.492188 -4.546875 -4.125 -4.992188 -4.453125 C -5.4375 -4.78125 -5.859375 -4.945312 -6.265625 -4.945312 C -6.679688 -4.945312 -7.03125 -4.792969 -7.320312 -4.496094 C -7.601562 -4.195312 -7.746094 -3.808594 -7.75 -3.328125 C -7.746094 -2.820312 -7.59375 -2.414062 -7.292969 -2.109375 C -6.984375 -1.804688 -6.5625 -1.648438 -6.03125 -1.648438 L -6.140625 -0.5625 C -6.945312 -0.636719 -7.558594 -0.914062 -7.988281 -1.402344 C -8.410156 -1.882812 -8.625 -2.535156 -8.625 -3.351562 C -8.625 -4.175781 -8.394531 -4.828125 -7.9375 -5.308594 C -7.480469 -5.789062 -6.914062 -6.027344 -6.242188 -6.03125 C -5.894531 -6.027344 -5.558594 -5.957031 -5.226562 -5.820312 C -4.890625 -5.675781 -4.539062 -5.441406 -4.175781 -5.117188 C -3.804688 -4.789062 -3.300781 -4.25 -2.664062 -3.492188 C -2.128906 -2.859375 -1.769531 -2.453125 -1.582031 -2.273438 C -1.394531 -2.09375 -1.203125 -1.945312 -1.011719 -1.828125 Z M -1.011719 -6.039062 "/>
</g>
<g id="glyph-2-10">
<path d="M 0 -3.878906 L -2.054688 -3.878906 L -2.054688 -0.152344 L -3.023438 -0.152344 L -8.589844 -4.074219 L -8.589844 -4.933594 L -3.023438 -4.933594 L -3.023438 -6.09375 L -2.054688 -6.09375 L -2.054688 -4.933594 L 0 -4.933594 Z M -3.023438 -3.878906 L -6.898438 -3.878906 L -3.023438 -1.191406 Z M -3.023438 -3.878906 "/>
</g>
<g id="glyph-2-11">
<path d="M -6.484375 -5.96875 L -6.40625 -4.921875 C -6.8125 -4.828125 -7.113281 -4.695312 -7.304688 -4.523438 C -7.605469 -4.238281 -7.757812 -3.886719 -7.757812 -3.46875 C -7.757812 -3.132812 -7.664062 -2.835938 -7.476562 -2.585938 C -7.234375 -2.25 -6.878906 -1.988281 -6.414062 -1.796875 C -5.949219 -1.605469 -5.289062 -1.507812 -4.429688 -1.5 C -4.8125 -1.753906 -5.097656 -2.0625 -5.289062 -2.433594 C -5.472656 -2.796875 -5.566406 -3.183594 -5.570312 -3.585938 C -5.566406 -4.289062 -5.308594 -4.886719 -4.792969 -5.382812 C -4.277344 -5.875 -3.609375 -6.121094 -2.789062 -6.125 C -2.25 -6.121094 -1.746094 -6.003906 -1.285156 -5.773438 C -0.816406 -5.539062 -0.460938 -5.222656 -0.21875 -4.816406 C 0.0273438 -4.410156 0.144531 -3.949219 0.148438 -3.433594 C 0.144531 -2.554688 -0.175781 -1.835938 -0.820312 -1.285156 C -1.46875 -0.726562 -2.535156 -0.449219 -4.019531 -0.453125 C -5.675781 -0.449219 -6.882812 -0.757812 -7.640625 -1.371094 C -8.296875 -1.90625 -8.625 -2.625 -8.625 -3.535156 C -8.625 -4.207031 -8.433594 -4.761719 -8.054688 -5.195312 C -7.675781 -5.625 -7.152344 -5.882812 -6.484375 -5.96875 Z M -2.78125 -1.664062 C -2.417969 -1.664062 -2.070312 -1.738281 -1.738281 -1.894531 C -1.40625 -2.042969 -1.152344 -2.261719 -0.980469 -2.542969 C -0.800781 -2.820312 -0.714844 -3.109375 -0.71875 -3.414062 C -0.714844 -3.859375 -0.894531 -4.242188 -1.257812 -4.566406 C -1.613281 -4.882812 -2.101562 -5.042969 -2.722656 -5.046875 C -3.3125 -5.042969 -3.78125 -4.886719 -4.125 -4.570312 C -4.46875 -4.25 -4.640625 -3.851562 -4.640625 -3.375 C -4.640625 -2.898438 -4.46875 -2.492188 -4.128906 -2.160156 C -3.785156 -1.828125 -3.335938 -1.664062 -2.78125 -1.664062 Z M -2.78125 -1.664062 "/>
</g>
<g id="glyph-2-12">
<path d="M -4.65625 -2.121094 C -4.816406 -1.683594 -5.046875 -1.359375 -5.34375 -1.148438 C -5.640625 -0.9375 -5.996094 -0.832031 -6.410156 -0.832031 C -7.035156 -0.832031 -7.558594 -1.054688 -7.984375 -1.503906 C -8.410156 -1.953125 -8.625 -2.550781 -8.625 -3.300781 C -8.625 -4.046875 -8.40625 -4.652344 -7.972656 -5.109375 C -7.535156 -5.566406 -7.003906 -5.792969 -6.382812 -5.796875 C -5.976562 -5.792969 -5.628906 -5.6875 -5.339844 -5.480469 C -5.042969 -5.269531 -4.816406 -4.953125 -4.65625 -4.53125 C -4.480469 -5.054688 -4.203125 -5.457031 -3.824219 -5.734375 C -3.4375 -6.007812 -2.980469 -6.144531 -2.453125 -6.148438 C -1.714844 -6.144531 -1.097656 -5.886719 -0.601562 -5.367188 C -0.101562 -4.84375 0.144531 -4.160156 0.148438 -3.316406 C 0.144531 -2.46875 -0.101562 -1.785156 -0.605469 -1.265625 C -1.105469 -0.746094 -1.734375 -0.484375 -2.484375 -0.488281 C -3.039062 -0.484375 -3.503906 -0.625 -3.886719 -0.910156 C -4.261719 -1.191406 -4.519531 -1.597656 -4.65625 -2.121094 Z M -6.445312 -1.910156 C -6.039062 -1.910156 -5.707031 -2.039062 -5.449219 -2.300781 C -5.191406 -2.5625 -5.0625 -2.902344 -5.0625 -3.324219 C -5.0625 -3.726562 -5.1875 -4.058594 -5.445312 -4.320312 C -5.695312 -4.578125 -6.011719 -4.710938 -6.386719 -4.710938 C -6.773438 -4.710938 -7.097656 -4.574219 -7.363281 -4.308594 C -7.625 -4.039062 -7.757812 -3.707031 -7.757812 -3.3125 C -7.757812 -2.90625 -7.628906 -2.574219 -7.371094 -2.308594 C -7.113281 -2.042969 -6.804688 -1.910156 -6.445312 -1.910156 Z M -2.476562 -1.570312 C -2.175781 -1.570312 -1.886719 -1.640625 -1.605469 -1.785156 C -1.324219 -1.925781 -1.105469 -2.136719 -0.949219 -2.421875 C -0.792969 -2.699219 -0.714844 -3.003906 -0.71875 -3.328125 C -0.714844 -3.832031 -0.875 -4.246094 -1.203125 -4.578125 C -1.523438 -4.902344 -1.9375 -5.066406 -2.441406 -5.070312 C -2.945312 -5.066406 -3.367188 -4.898438 -3.703125 -4.5625 C -4.035156 -4.222656 -4.199219 -3.800781 -4.203125 -3.292969 C -4.199219 -2.796875 -4.035156 -2.382812 -3.710938 -2.058594 C -3.378906 -1.730469 -2.96875 -1.570312 -2.476562 -1.570312 Z M -2.476562 -1.570312 "/>
</g>
<g id="glyph-2-13">
<path d="M 0 -4.46875 L 0 -3.414062 L -6.71875 -3.417969 C -6.476562 -3.160156 -6.234375 -2.828125 -5.996094 -2.417969 C -5.75 -2.003906 -5.570312 -1.632812 -5.449219 -1.308594 L -6.46875 -1.308594 C -6.742188 -1.894531 -7.078125 -2.410156 -7.476562 -2.851562 C -7.871094 -3.292969 -8.253906 -3.605469 -8.625 -3.792969 L -8.625 -4.472656 Z M 0 -4.46875 "/>
</g>
</g>
</defs>
<rect x="-45.9" y="-40.5" width="550.8" height="486" fill="rgb(100%, 100%, 100%)" fill-opacity="1"/>
<g fill="rgb(0%, 0%, 0%)" fill-opacity="1">
<use xlink:href="#glyph-0-0" x="202.894531" y="34.675781"/>
<use xlink:href="#glyph-0-1" x="212.499219" y="34.675781"/>
<use xlink:href="#glyph-0-2" x="216.5" y="34.675781"/>
<use xlink:href="#glyph-0-3" x="226.899219" y="34.675781"/>
<use xlink:href="#glyph-0-4" x="230.9" y="34.675781"/>
<use xlink:href="#glyph-0-4" x="241.7" y="34.675781"/>
<use xlink:href="#glyph-0-4" x="252.5" y="34.675781"/>
<use xlink:href="#glyph-0-4" x="263.3" y="34.675781"/>
<use xlink:href="#glyph-0-4" x="274.1" y="34.675781"/>
</g>
<g fill="rgb(0%, 0%, 0%)" fill-opacity="1">
<use xlink:href="#glyph-1-0" x="233.898438" y="386.28125"/>
<use xlink:href="#glyph-1-1" x="241.902344" y="386.28125"/>
<use xlink:href="#glyph-1-2" x="245.236328" y="386.28125"/>
</g>
<g fill="rgb(0%, 0%, 0%)" fill-opacity="1">
<use xlink:href="#glyph-2-0" x="12.960938" y="223.648438"/>
<use xlink:href="#glyph-2-1" x="12.960938" y="216.318359"/>
<use xlink:href="#glyph-2-2" x="12.960938" y="212.322266"/>
<use xlink:href="#glyph-2-3" x="12.960938" y="205.648438"/>
<use xlink:href="#glyph-2-4" x="12.960938" y="198.974609"/>
<use xlink:href="#glyph-2-2" x="12.960938" y="192.300781"/>
<use xlink:href="#glyph-2-5" x="12.960938" y="185.626953"/>
<use xlink:href="#glyph-2-6" x="12.960938" y="178.953125"/>
<use xlink:href="#glyph-2-7" x="12.960938" y="172.953125"/>
</g>
<path fill="none" stroke-width="0.75" stroke-linecap="round" stroke-linejoin="round" stroke="rgb(0%, 0%, 0%)" stroke-opacity="1" stroke-miterlimit="10" d="M 72.734375 331.558594 L 415.066406 331.558594 "/>
<path fill="none" stroke-width="0.75" stroke-linecap="round" stroke-linejoin="round" stroke="rgb(0%, 0%, 0%)" stroke-opacity="1" stroke-miterlimit="10" d="M 72.734375 331.558594 L 72.734375 338.761719 "/>
<path fill="none" stroke-width="0.75" stroke-linecap="round" stroke-linejoin="round" stroke="rgb(0%, 0%, 0%)" stroke-opacity="1" stroke-miterlimit="10" d="M 141.199219 331.558594 L 141.199219 338.761719 "/>
<path fill="none" stroke-width="0.75" stroke-linecap="round" stroke-linejoin="round" stroke="rgb(0%, 0%, 0%)" stroke-opacity="1" stroke-miterlimit="10" d="M 209.667969 331.558594 L 209.667969 338.761719 "/>
<path fill="none" stroke-width="0.75" stroke-linecap="round" stroke-linejoin="round" stroke="rgb(0%, 0%, 0%)" stroke-opacity="1" stroke-miterlimit="10" d="M 278.132812 331.558594 L 278.132812 338.761719 "/>
<path fill="none" stroke-width="0.75" stroke-linecap="round" stroke-linejoin="round" stroke="rgb(0%, 0%, 0%)" stroke-opacity="1" stroke-miterlimit="10" d="M 346.601562 331.558594 L 346.601562 338.761719 "/>
<path fill="none" stroke-width="0.75" stroke-linecap="round" stroke-linejoin="round" stroke="rgb(0%, 0%, 0%)" stroke-opacity="1" stroke-miterlimit="10" d="M 415.066406 331.558594 L 415.066406 338.761719 "/>
<g fill="rgb(0%, 0%, 0%)" fill-opacity="1">
<use xlink:href="#glyph-1-3" x="69.398438" y="357.480469"/>
</g>
<g fill="rgb(0%, 0%, 0%)" fill-opacity="1">
<use xlink:href="#glyph-1-4" x="137.863281" y="357.480469"/>
</g>
<g fill="rgb(0%, 0%, 0%)" fill-opacity="1">
<use xlink:href="#glyph-1-5" x="206.332031" y="357.480469"/>
</g>
<g fill="rgb(0%, 0%, 0%)" fill-opacity="1">
<use xlink:href="#glyph-1-6" x="274.796875" y="357.480469"/>
</g>
<g fill="rgb(0%, 0%, 0%)" fill-opacity="1">
<use xlink:href="#glyph-1-7" x="343.265625" y="357.480469"/>
</g>
<g fill="rgb(0%, 0%, 0%)" fill-opacity="1">
<use xlink:href="#glyph-1-8" x="411.730469" y="357.480469"/>
</g>
<path fill="none" stroke-width="0.75" stroke-linecap="round" stroke-linejoin="round" stroke="rgb(0%, 0%, 0%)" stroke-opacity="1" stroke-miterlimit="10" d="M 59.039062 321.464844 L 59.039062 95.328125 "/>
<path fill="none" stroke-width="0.75" stroke-linecap="round" stroke-linejoin="round" stroke="rgb(0%, 0%, 0%)" stroke-opacity="1" stroke-miterlimit="10" d="M 59.039062 321.464844 L 51.839844 321.464844 "/>
<path fill="none" stroke-width="0.75" stroke-linecap="round" stroke-linejoin="round" stroke="rgb(0%, 0%, 0%)" stroke-opacity="1" stroke-miterlimit="10" d="M 59.039062 283.777344 L 51.839844 283.777344 "/>
<path fill="none" stroke-width="0.75" stroke-linecap="round" stroke-linejoin="round" stroke="rgb(0%, 0%, 0%)" stroke-opacity="1" stroke-miterlimit="10" d="M 59.039062 246.085938 L 51.839844 246.085938 "/>
<path fill="none" stroke-width="0.75" stroke-linecap="round" stroke-linejoin="round" stroke="rgb(0%, 0%, 0%)" stroke-opacity="1" stroke-miterlimit="10" d="M 59.039062 208.398438 L 51.839844 208.398438 "/>
<path fill="none" stroke-width="0.75" stroke-linecap="round" stroke-linejoin="round" stroke="rgb(0%, 0%, 0%)" stroke-opacity="1" stroke-miterlimit="10" d="M 59.039062 170.707031 L 51.839844 170.707031 "/>
<path fill="none" stroke-width="0.75" stroke-linecap="round" stroke-linejoin="round" stroke="rgb(0%, 0%, 0%)" stroke-opacity="1" stroke-miterlimit="10" d="M 59.039062 133.015625 L 51.839844 133.015625 "/>
<path fill="none" stroke-width="0.75" stroke-linecap="round" stroke-linejoin="round" stroke="rgb(0%, 0%, 0%)" stroke-opacity="1" stroke-miterlimit="10" d="M 59.039062 95.328125 L 51.839844 95.328125 "/>
<g fill="rgb(0%, 0%, 0%)" fill-opacity="1">
<use xlink:href="#glyph-2-8" x="41.761719" y="324.800781"/>
</g>
<g fill="rgb(0%, 0%, 0%)" fill-opacity="1">
<use xlink:href="#glyph-2-9" x="41.761719" y="293.789062"/>
<use xlink:href="#glyph-2-8" x="41.761719" y="287.115234"/>
<use xlink:href="#glyph-2-8" x="41.761719" y="280.441406"/>
</g>
<g fill="rgb(0%, 0%, 0%)" fill-opacity="1">
<use xlink:href="#glyph-2-10" x="41.761719" y="256.097656"/>
<use xlink:href="#glyph-2-8" x="41.761719" y="249.423828"/>
<use xlink:href="#glyph-2-8" x="41.761719" y="242.75"/>
</g>
<g fill="rgb(0%, 0%, 0%)" fill-opacity="1">
<use xlink:href="#glyph-2-11" x="41.761719" y="218.410156"/>
<use xlink:href="#glyph-2-8" x="41.761719" y="211.736328"/>
<use xlink:href="#glyph-2-8" x="41.761719" y="205.0625"/>
</g>
<g fill="rgb(0%, 0%, 0%)" fill-opacity="1">
<use xlink:href="#glyph-2-12" x="41.761719" y="180.71875"/>
<use xlink:href="#glyph-2-8" x="41.761719" y="174.044922"/>
<use xlink:href="#glyph-2-8" x="41.761719" y="167.371094"/>
</g>
<g fill="rgb(0%, 0%, 0%)" fill-opacity="1">
<use xlink:href="#glyph-2-13" x="41.761719" y="146.363281"/>
<use xlink:href="#glyph-2-8" x="41.761719" y="139.689453"/>
<use xlink:href="#glyph-2-8" x="41.761719" y="133.015625"/>
<use xlink:href="#glyph-2-8" x="41.761719" y="126.341797"/>
</g>
<g fill="rgb(0%, 0%, 0%)" fill-opacity="1">
<use xlink:href="#glyph-2-13" x="41.761719" y="108.675781"/>
<use xlink:href="#glyph-2-9" x="41.761719" y="102.001953"/>
<use xlink:href="#glyph-2-8" x="41.761719" y="95.328125"/>
<use xlink:href="#glyph-2-8" x="41.761719" y="88.654297"/>
</g>
<path fill-rule="nonzero" fill="rgb(67.843137%, 84.705882%, 90.196078%)" fill-opacity="1" stroke-width="0.75" stroke-linecap="round" stroke-linejoin="round" stroke="rgb(0%, 0%, 0%)" stroke-opacity="1" stroke-miterlimit="10" d="M 72.734375 321.464844 L 86.425781 321.464844 L 86.425781 261.914062 L 72.734375 261.914062 Z M 72.734375 321.464844 "/>
<path fill-rule="nonzero" fill="rgb(67.843137%, 84.705882%, 90.196078%)" fill-opacity="1" stroke-width="0.75" stroke-linecap="round" stroke-linejoin="round" stroke="rgb(0%, 0%, 0%)" stroke-opacity="1" stroke-miterlimit="10" d="M 86.425781 321.464844 L 100.117188 321.464844 L 100.117188 279.628906 L 86.425781 279.628906 Z M 86.425781 321.464844 "/>
<path fill-rule="nonzero" fill="rgb(67.843137%, 84.705882%, 90.196078%)" fill-opacity="1" stroke-width="0.75" stroke-linecap="round" stroke-linejoin="round" stroke="rgb(0%, 0%, 0%)" stroke-opacity="1" stroke-miterlimit="10" d="M 100.121094 321.464844 L 113.8125 321.464844 L 113.8125 255.507812 L 100.121094 255.507812 Z M 100.121094 321.464844 "/>
<path fill-rule="nonzero" fill="rgb(67.843137%, 84.705882%, 90.196078%)" fill-opacity="1" stroke-width="0.75" stroke-linecap="round" stroke-linejoin="round" stroke="rgb(0%, 0%, 0%)" stroke-opacity="1" stroke-miterlimit="10" d="M 113.8125 321.464844 L 127.503906 321.464844 L 127.503906 232.328125 L 113.8125 232.328125 Z M 113.8125 321.464844 "/>
<path fill-rule="nonzero" fill="rgb(67.843137%, 84.705882%, 90.196078%)" fill-opacity="1" stroke-width="0.75" stroke-linecap="round" stroke-linejoin="round" stroke="rgb(0%, 0%, 0%)" stroke-opacity="1" stroke-miterlimit="10" d="M 127.507812 321.464844 L 141.199219 321.464844 L 141.199219 223.09375 L 127.507812 223.09375 Z M 127.507812 321.464844 "/>
<path fill-rule="nonzero" fill="rgb(67.843137%, 84.705882%, 90.196078%)" fill-opacity="1" stroke-width="0.75" stroke-linecap="round" stroke-linejoin="round" stroke="rgb(0%, 0%, 0%)" stroke-opacity="1" stroke-miterlimit="10" d="M 141.199219 321.464844 L 154.890625 321.464844 L 154.890625 216.6875 L 141.199219 216.6875 Z M 141.199219 321.464844 "/>
<path fill-rule="nonzero" fill="rgb(67.843137%, 84.705882%, 90.196078%)" fill-opacity="1" stroke-width="0.75" stroke-linecap="round" stroke-linejoin="round" stroke="rgb(0%, 0%, 0%)" stroke-opacity="1" stroke-miterlimit="10" d="M 154.894531 321.464844 L 168.585938 321.464844 L 168.585938 239.300781 L 154.894531 239.300781 Z M 154.894531 321.464844 "/>
<path fill-rule="nonzero" fill="rgb(67.843137%, 84.705882%, 90.196078%)" fill-opacity="1" stroke-width="0.75" stroke-linecap="round" stroke-linejoin="round" stroke="rgb(0%, 0%, 0%)" stroke-opacity="1" stroke-miterlimit="10" d="M 168.585938 321.464844 L 182.277344 321.464844 L 182.277344 235.910156 L 168.585938 235.910156 Z M 168.585938 321.464844 "/>
<path fill-rule="nonzero" fill="rgb(67.843137%, 84.705882%, 90.196078%)" fill-opacity="1" stroke-width="0.75" stroke-linecap="round" stroke-linejoin="round" stroke="rgb(0%, 0%, 0%)" stroke-opacity="1" stroke-miterlimit="10" d="M 182.28125 321.464844 L 195.972656 321.464844 L 195.972656 236.097656 L 182.28125 236.097656 Z M 182.28125 321.464844 "/>
<path fill-rule="nonzero" fill="rgb(67.843137%, 84.705882%, 90.196078%)" fill-opacity="1" stroke-width="0.75" stroke-linecap="round" stroke-linejoin="round" stroke="rgb(0%, 0%, 0%)" stroke-opacity="1" stroke-miterlimit="10" d="M 195.972656 321.464844 L 209.664062 321.464844 L 209.664062 249.476562 L 195.972656 249.476562 Z M 195.972656 321.464844 "/>
<path fill-rule="nonzero" fill="rgb(67.843137%, 84.705882%, 90.196078%)" fill-opacity="1" stroke-width="0.75" stroke-linecap="round" stroke-linejoin="round" stroke="rgb(0%, 0%, 0%)" stroke-opacity="1" stroke-miterlimit="10" d="M 209.667969 321.464844 L 223.359375 321.464844 L 223.359375 261.726562 L 209.667969 261.726562 Z M 209.667969 321.464844 "/>
<path fill-rule="nonzero" fill="rgb(67.843137%, 84.705882%, 90.196078%)" fill-opacity="1" stroke-width="0.75" stroke-linecap="round" stroke-linejoin="round" stroke="rgb(0%, 0%, 0%)" stroke-opacity="1" stroke-miterlimit="10" d="M 223.359375 321.464844 L 237.050781 321.464844 L 237.050781 285.09375 L 223.359375 285.09375 Z M 223.359375 321.464844 "/>
<path fill-rule="nonzero" fill="rgb(67.843137%, 84.705882%, 90.196078%)" fill-opacity="1" stroke-width="0.75" stroke-linecap="round" stroke-linejoin="round" stroke="rgb(0%, 0%, 0%)" stroke-opacity="1" stroke-miterlimit="10" d="M 237.054688 321.464844 L 250.746094 321.464844 L 250.746094 268.886719 L 237.054688 268.886719 Z M 237.054688 321.464844 "/>
<path fill-rule="nonzero" fill="rgb(67.843137%, 84.705882%, 90.196078%)" fill-opacity="1" stroke-width="0.75" stroke-linecap="round" stroke-linejoin="round" stroke="rgb(0%, 0%, 0%)" stroke-opacity="1" stroke-miterlimit="10" d="M 250.746094 321.464844 L 264.4375 321.464844 L 264.4375 275.105469 L 250.746094 275.105469 Z M 250.746094 321.464844 "/>
<path fill-rule="nonzero" fill="rgb(67.843137%, 84.705882%, 90.196078%)" fill-opacity="1" stroke-width="0.75" stroke-linecap="round" stroke-linejoin="round" stroke="rgb(0%, 0%, 0%)" stroke-opacity="1" stroke-miterlimit="10" d="M 264.441406 321.464844 L 278.132812 321.464844 L 278.132812 285.472656 L 264.441406 285.472656 Z M 264.441406 321.464844 "/>
<path fill-rule="nonzero" fill="rgb(67.843137%, 84.705882%, 90.196078%)" fill-opacity="1" stroke-width="0.75" stroke-linecap="round" stroke-linejoin="round" stroke="rgb(0%, 0%, 0%)" stroke-opacity="1" stroke-miterlimit="10" d="M 278.132812 321.464844 L 291.824219 321.464844 L 291.824219 286.980469 L 278.132812 286.980469 Z M 278.132812 321.464844 "/>
<path fill-rule="nonzero" fill="rgb(67.843137%, 84.705882%, 90.196078%)" fill-opacity="1" stroke-width="0.75" stroke-linecap="round" stroke-linejoin="round" stroke="rgb(0%, 0%, 0%)" stroke-opacity="1" stroke-miterlimit="10" d="M 291.828125 321.464844 L 305.519531 321.464844 L 305.519531 281.511719 L 291.828125 281.511719 Z M 291.828125 321.464844 "/>
<path fill-rule="nonzero" fill="rgb(67.843137%, 84.705882%, 90.196078%)" fill-opacity="1" stroke-width="0.75" stroke-linecap="round" stroke-linejoin="round" stroke="rgb(0%, 0%, 0%)" stroke-opacity="1" stroke-miterlimit="10" d="M 305.519531 321.464844 L 319.210938 321.464844 L 319.210938 297.15625 L 305.519531 297.15625 Z M 305.519531 321.464844 "/>
<path fill-rule="nonzero" fill="rgb(67.843137%, 84.705882%, 90.196078%)" fill-opacity="1" stroke-width="0.75" stroke-linecap="round" stroke-linejoin="round" stroke="rgb(0%, 0%, 0%)" stroke-opacity="1" stroke-miterlimit="10" d="M 319.214844 321.464844 L 332.90625 321.464844 L 332.90625 291.3125 L 319.214844 291.3125 Z M 319.214844 321.464844 "/>
<path fill-rule="nonzero" fill="rgb(67.843137%, 84.705882%, 90.196078%)" fill-opacity="1" stroke-width="0.75" stroke-linecap="round" stroke-linejoin="round" stroke="rgb(0%, 0%, 0%)" stroke-opacity="1" stroke-miterlimit="10" d="M 332.90625 321.464844 L 346.597656 321.464844 L 346.597656 294.328125 L 332.90625 294.328125 Z M 332.90625 321.464844 "/>
<path fill-rule="nonzero" fill="rgb(67.843137%, 84.705882%, 90.196078%)" fill-opacity="1" stroke-width="0.75" stroke-linecap="round" stroke-linejoin="round" stroke="rgb(0%, 0%, 0%)" stroke-opacity="1" stroke-miterlimit="10" d="M 346.601562 321.464844 L 360.292969 321.464844 L 360.292969 291.5 L 346.601562 291.5 Z M 346.601562 321.464844 "/>
<path fill-rule="nonzero" fill="rgb(67.843137%, 84.705882%, 90.196078%)" fill-opacity="1" stroke-width="0.75" stroke-linecap="round" stroke-linejoin="round" stroke="rgb(0%, 0%, 0%)" stroke-opacity="1" stroke-miterlimit="10" d="M 360.292969 321.464844 L 373.984375 321.464844 L 373.984375 304.316406 L 360.292969 304.316406 Z M 360.292969 321.464844 "/>
<path fill-rule="nonzero" fill="rgb(67.843137%, 84.705882%, 90.196078%)" fill-opacity="1" stroke-width="0.75" stroke-linecap="round" stroke-linejoin="round" stroke="rgb(0%, 0%, 0%)" stroke-opacity="1" stroke-miterlimit="10" d="M 373.988281 321.464844 L 387.679688 321.464844 L 387.679688 303.183594 L 373.988281 303.183594 Z M 373.988281 321.464844 "/>
<path fill-rule="nonzero" fill="rgb(67.843137%, 84.705882%, 90.196078%)" fill-opacity="1" stroke-width="0.75" stroke-linecap="round" stroke-linejoin="round" stroke="rgb(0%, 0%, 0%)" stroke-opacity="1" stroke-miterlimit="10" d="M 387.679688 321.464844 L 401.371094 321.464844 L 401.371094 299.039062 L 387.679688 299.039062 Z M 387.679688 321.464844 "/>
<path fill-rule="nonzero" fill="rgb(67.843137%, 84.705882%, 90.196078%)" fill-opacity="1" stroke-width="0.75" stroke-linecap="round" stroke-linejoin="round" stroke="rgb(0%, 0%, 0%)" stroke-opacity="1" stroke-miterlimit="10" d="M 401.375 321.464844 L 415.066406 321.464844 L 415.066406 69.132812 L 401.375 69.132812 Z M 401.375 321.464844 "/>
</svg>
